<svg width="45" height="45" viewBox="0 0 45 45" fill="none" xmlns="http://www.w3.org/2000/svg">
<path d="M7.73572 28.8128L18.9907 22.4818C20.1064 21.8543 21.2348 21.5625 22.5 21.5625C23.7652 21.5625 24.8936 21.8543 26.0093 22.4818L37.2643 28.8128C38.5682 29.5461 39.375 30.9257 39.375 32.4217C39.375 34.7087 37.5212 36.5625 35.2342 36.5625H9.76577C7.47889 36.5625 5.625 34.7087 5.625 32.4217C5.625 30.9257 6.43189 29.5461 7.73572 28.8128Z" stroke="#2A3663" stroke-width="1.5" stroke-linecap="round" stroke-linejoin="round"/>
<path d="M18.75 12.0089C18.75 10.0365 20.4289 8.4375 22.5 8.4375C24.5711 8.4375 26.25 10.0365 26.25 12.0089C26.25 13.3585 25.464 14.5332 24.3043 15.1406C23.3869 15.621 22.5 16.4198 22.5 17.4553V21.5625" stroke="#2A3663" stroke-width="1.5" stroke-linecap="round"/>
</svg>
