<svg width="35" height="35" viewBox="0 0 35 35" fill="none" xmlns="http://www.w3.org/2000/svg">
<path d="M10.3374 6.94697L8.87902 8.08576C6.66724 9.81293 5.56132 10.6765 4.96816 11.8942C4.375 13.1118 4.375 14.5185 4.375 17.3317V20.3827C4.375 25.9044 4.375 28.6653 6.08354 30.3807C7.45888 31.7615 9.50896 32.0308 13.125 32.0833V26.2583C13.125 24.8993 13.125 24.2197 13.347 23.6838C13.643 22.969 14.2108 22.4013 14.9255 22.1053C15.4615 21.8833 16.141 21.8833 17.5 21.8833C18.859 21.8833 19.5385 21.8833 20.0745 22.1053C20.7891 22.4013 21.357 22.969 21.653 23.6838C21.875 24.2197 21.875 24.8993 21.875 26.2583V32.0833C25.4911 32.0308 27.5411 31.7615 28.9164 30.3807C30.625 28.6653 30.625 25.9044 30.625 20.3827V17.3317C30.625 14.5185 30.625 13.1118 30.0319 11.8942C29.4386 10.6765 28.3328 9.81293 26.1209 8.08576L24.6626 6.94697C21.2218 4.26009 19.5014 2.91666 17.5 2.91666C15.4986 2.91666 13.7781 4.26009 10.3374 6.94697Z" stroke="#2A3663" stroke-width="1.5" stroke-linejoin="round"/>
</svg>
