<svg width="35" height="35" viewBox="0 0 35 35" fill="none" xmlns="http://www.w3.org/2000/svg">
<path d="M9.59229 22.5773C7.52909 23.8058 2.11949 26.3143 5.4143 29.4534C7.02379 30.9867 8.81634 32.0833 11.07 32.0833H23.9299C26.1837 32.0833 27.9762 30.9867 29.5857 29.4534C32.8805 26.3143 27.4709 23.8058 25.4077 22.5773C20.5695 19.6964 14.4305 19.6964 9.59229 22.5773Z" stroke="#2A3663" stroke-width="1.5" stroke-linecap="round" stroke-linejoin="round"/>
<path d="M24.0625 9.47916C24.0625 13.1035 21.1244 16.0417 17.5 16.0417C13.8756 16.0417 10.9375 13.1035 10.9375 9.47916C10.9375 5.85479 13.8756 2.91666 17.5 2.91666C21.1244 2.91666 24.0625 5.85479 24.0625 9.47916Z" stroke="#2A3663" stroke-width="1.5"/>
</svg>
