<svg width="35" height="35" viewBox="0 0 35 35" fill="none" xmlns="http://www.w3.org/2000/svg">
<path d="M19.6875 16.0417C19.6875 17.2497 18.7081 18.2292 17.5 18.2292C16.2919 18.2292 15.3125 17.2497 15.3125 16.0417C15.3125 14.8336 16.2919 13.8542 17.5 13.8542C18.7081 13.8542 19.6875 14.8336 19.6875 16.0417Z" stroke="#2A3663" stroke-width="1.5"/>
<path d="M30.625 15.3125C30.6079 15.0319 30.5824 14.7535 30.5485 14.4778C30.0705 10.5846 27.9422 7.21186 24.8971 5.10416M10.103 5.10416C7.05779 7.21186 4.92956 10.5846 4.45147 14.4778C4.41763 14.7535 4.39205 15.0319 4.375 15.3125" stroke="#2A3663" stroke-width="1.5" stroke-linecap="round"/>
<path d="M17.5 13.8542V10.2083" stroke="#2A3663" stroke-width="1.5" stroke-linecap="round"/>
<path d="M14.8735 5.81886L15.0948 8.03167C15.1763 8.84589 15.217 9.253 15.415 9.5532C15.5507 9.75873 15.7361 9.92657 15.9542 10.0411C16.2727 10.2083 16.6817 10.2083 17.5 10.2083C18.3183 10.2083 18.7273 10.2083 19.0458 10.0411C19.2639 9.92657 19.4494 9.75873 19.585 9.5532C19.783 9.253 19.8237 8.84589 19.9052 8.03167L20.1265 5.81884C20.2471 4.61271 20.3074 4.00963 20.0276 3.57963C19.9433 3.45003 19.8389 3.33466 19.7183 3.23784C19.3183 2.91666 18.7122 2.91666 17.5 2.91666C16.2878 2.91666 15.6818 2.91666 15.2817 3.23784C15.1611 3.33466 15.0567 3.45003 14.9724 3.57963C14.6926 4.00963 14.7529 4.61271 14.8735 5.81886Z" stroke="#2A3663" stroke-width="1.5" stroke-linecap="round"/>
<path d="M15.6047 17.1354L12.4473 18.9583" stroke="#2A3663" stroke-width="1.5" stroke-linecap="round"/>
<path d="M9.96192 23.4278L11.7676 22.1298C12.4321 21.6522 12.7643 21.4133 12.9252 21.0917C13.0354 20.8715 13.088 20.627 13.0782 20.3808C13.0638 20.0215 12.8592 19.6671 12.4501 18.9585C12.0409 18.2499 11.8364 17.8955 11.5323 17.7034C11.3242 17.5719 11.0861 17.4952 10.8403 17.4805C10.4812 17.459 10.1083 17.6273 9.36247 17.9639L7.33546 18.8787C6.23061 19.3773 5.67818 19.6265 5.44568 20.0839C5.3756 20.2217 5.3279 20.3699 5.30433 20.5227C5.2262 21.0297 5.52924 21.5546 6.13532 22.6043C6.74139 23.6542 7.04443 24.179 7.52261 24.3648C7.66673 24.4208 7.81885 24.4536 7.97326 24.4618C8.48554 24.4891 8.97767 24.1353 9.96192 23.4278Z" stroke="#2A3663" stroke-width="1.5" stroke-linecap="round"/>
<path d="M19.3955 17.1354L22.5529 18.9583" stroke="#2A3663" stroke-width="1.5" stroke-linecap="round"/>
<path d="M27.6645 18.8772L25.6375 17.9624C24.8917 17.6258 24.5187 17.4576 24.1596 17.479C23.9139 17.4937 23.6758 17.5704 23.4677 17.702C23.1636 17.8942 22.959 18.2484 22.5499 18.957C22.1407 19.6658 21.9361 20.02 21.9218 20.3795C21.9119 20.6255 21.9646 20.8701 22.0748 21.0903C22.2357 21.412 22.5679 21.6507 23.2323 22.1283L25.038 23.4264C26.0222 24.134 26.5144 24.4876 27.0267 24.4603C27.1812 24.4522 27.3333 24.4193 27.4774 24.3633C27.9555 24.1776 28.2586 23.6527 28.8647 22.6028C29.4708 21.5531 29.7738 21.0283 29.6956 20.5212C29.672 20.3684 29.6243 20.2204 29.5543 20.0824C29.3219 19.6252 28.7693 19.3758 27.6645 18.8772Z" stroke="#2A3663" stroke-width="1.5" stroke-linecap="round"/>
<path d="M17.5 18.2292V32.0833" stroke="#2A3663" stroke-width="1.5" stroke-linecap="round"/>
<path d="M26.25 32.0833H8.75" stroke="#2A3663" stroke-width="1.5" stroke-linecap="round"/>
</svg>
