<svg width="36" height="36" viewBox="0 0 36 36" fill="none" xmlns="http://www.w3.org/2000/svg">
<path d="M9.25 29.6667V32.5833M26.75 29.6667V32.5833" stroke="#2A3663" stroke-width="1.5" stroke-linecap="round" stroke-linejoin="round"/>
<path d="M4.875 20.9167V12.1667C4.875 8.04186 4.875 5.97947 6.23179 4.69806C7.58856 3.41666 9.77229 3.41666 14.1397 3.41666H21.8604C26.2278 3.41666 28.4115 3.41666 29.7682 4.69806C31.125 5.97947 31.125 8.04186 31.125 12.1667V20.9167C31.125 25.0414 31.125 27.1038 29.7682 28.3852C28.4115 29.6667 26.2278 29.6667 21.8604 29.6667H14.1397C9.77229 29.6667 7.58856 29.6667 6.23179 28.3852C4.875 27.1038 4.875 25.0414 4.875 20.9167Z" stroke="#2A3663" stroke-width="1.5" stroke-linecap="round" stroke-linejoin="round"/>
<path d="M18 29.6667V3.41666" stroke="#2A3663" stroke-width="1.5" stroke-linecap="round" stroke-linejoin="round"/>
<path d="M13.625 15.0833V16.5417" stroke="#2A3663" stroke-width="1.5" stroke-linecap="round" stroke-linejoin="round"/>
<path d="M22.375 15.0833V16.5417" stroke="#2A3663" stroke-width="1.5" stroke-linecap="round" stroke-linejoin="round"/>
</svg>
